#define reveal_icon_width 24
#define reveal_icon_height 10

static char reveal_icon_bits[] = {
	0x00,0x00,0x00,
	0xFC,0xFF,0x3F,
	0x02,0x00,0x40,
	0xF9,0xC7,0x8F,
	0x01,0x60,0x98,
	0xF9,0x07,0x8C,
	0x01,0x00,0x83,
	0xF9,0x07,0x80,
	0x02,0x00,0x43,
	0xFC,0xFF,0x3F,
};
